<?xml version="1.0" encoding="utf-8"?>
<!-- Generator: Adobe Illustrator 19.0.0, SVG Export Plug-In . SVG Version: 6.00 Build 0)  -->
<svg version="1.1" id="Layer_1" xmlns="http://www.w3.org/2000/svg" xmlns:xlink="http://www.w3.org/1999/xlink" x="0px" y="0px"
	 viewBox="0 0 443.8 443.2" style="enable-background:new 0 0 443.8 443.2;" xml:space="preserve">
<style type="text/css">
	.st0{fill:none;}
</style>
<g>
	<path d="M443.8,221.4c-0.5,121.4-98.6,220.7-220.1,221.8C104.1,444.3,0.4,347.8,0,222.1C-0.4,99.5,98.5,0.6,220.6,0
		C347-0.6,443.3,102.1,443.8,221.4z M16.6,211.2c-0.2,28.1,0.9,39.3,5.7,59.3c7.5,30.6,21.6,57.8,41.5,82.2c3,3.7,3.3,3.8,7.1,1.2
		c15.1-10.2,31.5-17.8,48.9-23.2c12.5-3.8,25.3-6.8,38-9.9c2.5-0.6,3.4-1.9,3.4-4.2c0-5.6,0-11.3-0.1-16.9
		c-0.1-7.3-2.2-14.1-5.5-20.6c-6.3-12.3-12.2-24.8-15.3-38.5c-2.2-9.8-5.9-19.2-8.6-28.9c-2.7-9.6-2.3-19.2,1.5-28.5
		c0.4-1,0.4-2.4,0.2-3.5c-1.5-11.1-3.3-22.1-4.5-33.2c-1.4-12.4-0.1-24.5,5.1-36.1c6.5-14.7,17.6-25,31.6-32.1
		c5.2-2.6,6.9-6.2,7-11.6c0.1-5.9,1-11.7,1.6-17.6c0.8-7.2,8.9-12.2,15.9-6.6c9.7,7.8,20.9,12.9,32.7,16.4
		c13.3,4,26.8,7.7,40.2,11.5c8.4,2.4,16.4,5.6,23.6,10.6c19.2,13.2,28,31.8,28.4,54.7c0.2,12.8-1.9,25.4-4.1,38
		c-0.8,4.6-1.5,9.1,0.8,13.5c0.7,1.3,0.9,3,1.1,4.5c1.5,10.4-0.5,20.4-3.5,30.3c-1.9,6.4-4.9,12.4-6.3,18.9
		c-2.4,10.8-6.6,20.7-11.3,30.6c-3.1,6.5-6.5,13-8.3,19.9c-1.5,6.1-1.3,12.8-1.2,19.3c0.1,11.4-2,9,9.6,11.6
		c29.2,6.5,57.4,15.7,82.3,32.9c1.7,1.2,2.7,1,3.8-0.6c5.2-7,10.8-13.7,15.5-20.9c19.6-30.4,31.2-63.4,33.2-99.7
		c1.1-21.4-0.6-42.5-6-63.2c-9.6-37.1-28.3-69.1-55.7-95.8c-34.9-34-76.6-53.5-125.3-57.6c-24.9-2.1-49.5-0.2-73.5,6.8
		C126.5,35.5,93,56.6,66.1,88C34.1,125.2,17.6,168.4,16.6,211.2z M189.2,62.6c-0.6,5.2-1.1,9.8-1.7,14.3c-0.8,6.1-3.8,10.6-9.6,13.3
		c-3.3,1.5-6.4,3.3-9.4,5.3c-17,11-25.6,26.5-23.5,46.8c1.5,14.1,4,28.1,6.2,42.2c0.3,1.7,0,3-1.3,4.2c-2.7,2.2-3.7,5-3.4,8.4
		c0.6,5.3,0.7,10.8,2.1,15.9c2.2,8.3,5.3,16.3,7.9,24.5c1.3,3.9,1.8,8.2,3.4,11.9c3.7,8.9,8,17.5,11.8,26.3c2,4.6,4.4,9.4,4.9,14.3
		c0.9,9.4,0.8,19,0.8,28.5c0,8.4-5.9,15.9-14.1,18c-6.2,1.6-12.4,2.8-18.6,4.3c-20.8,4.9-40.6,12.2-59.1,23.2
		c-2.3,1.4-4.4,3.1-6.7,4.8c83.8,82.7,215.7,72.3,285.4-0.1c-1-0.8-1.9-1.7-3-2.4c-1.6-1.1-3.2-2.1-4.9-3.1
		c-16.6-9.6-34.3-16.3-52.8-21.1c-7.9-2.1-16-3.8-23.9-5.9c-7-1.8-12.5-6.4-13.2-13.4c-0.9-10.2-0.5-20.5,0.1-30.7
		c0.4-7.8,4.4-14.6,7.7-21.5c5-10.6,10.4-21,12.7-32.7c0.9-4.7,2.9-9.1,4.6-13.6c3.3-8.8,5.6-17.8,5.4-27.3
		c-0.1-3.3-0.9-5.9-3.3-8.2c-0.8-0.8-1.3-2.5-1.2-3.6c0.6-4.7,1.6-9.3,2.3-13.9c2.1-13,4.6-26,3.7-39.3
		c-1.4-19.4-10.8-33.6-28.7-40.9c-12.2-4.9-25.2-7.8-37.7-12c-11.4-3.8-22.6-8-33.9-12.1C195.3,65.5,192.5,64,189.2,62.6z"/>
	<path class="st0" d="M16.6,211.2c1-42.8,17.5-86,49.4-123.3C93,56.6,126.5,35.5,166.2,24c24.1-7,48.6-8.9,73.5-6.8
		c48.7,4.2,90.4,23.7,125.3,57.6c27.5,26.7,46.1,58.7,55.7,95.8c5.4,20.7,7.1,41.8,6,63.2c-1.9,36.3-13.5,69.4-33.2,99.7
		c-4.7,7.3-10.4,13.9-15.5,20.9c-1.2,1.6-2.1,1.8-3.8,0.6c-24.9-17.2-53-26.4-82.3-32.9c-11.6-2.6-9.5-0.2-9.6-11.6
		c-0.1-6.4-0.3-13.1,1.2-19.3c1.7-6.9,5.1-13.4,8.3-19.9c4.7-9.9,8.9-19.8,11.3-30.6c1.4-6.4,4.4-12.5,6.3-18.9
		c3-9.9,5-19.9,3.5-30.3c-0.2-1.5-0.4-3.2-1.1-4.5c-2.3-4.4-1.6-8.9-0.8-13.5c2.2-12.6,4.3-25.2,4.1-38
		c-0.4-22.9-9.2-41.5-28.4-54.7c-7.2-5-15.2-8.3-23.6-10.6c-13.4-3.7-26.8-7.5-40.2-11.5c-11.9-3.6-23.1-8.6-32.7-16.4
		c-6.9-5.6-15.1-0.6-15.9,6.6c-0.6,5.9-1.5,11.7-1.6,17.6c-0.1,5.4-1.8,9-7,11.6c-14.1,7.1-25.1,17.5-31.6,32.1
		c-5.1,11.5-6.5,23.7-5.1,36.1c1.3,11.1,3,22.1,4.5,33.2c0.2,1.1,0.2,2.5-0.2,3.5c-3.8,9.4-4.2,18.9-1.5,28.5
		c2.7,9.7,6.4,19.1,8.6,28.9c3.1,13.7,9,26.2,15.3,38.5c3.3,6.6,5.5,13.3,5.5,20.6c0.1,5.6,0.1,11.3,0.1,16.9c0,2.3-0.9,3.6-3.4,4.2
		c-12.7,3.2-25.5,6.1-38,9.9c-17.4,5.3-33.8,12.9-48.9,23.2c-3.8,2.6-4.1,2.5-7.1-1.2c-19.9-24.3-34-51.6-41.5-82.2
		C17.5,250.6,16.4,239.3,16.6,211.2z"/>
	<path class="st0" d="M189.2,62.6c3.3,1.5,6.1,2.9,9,4c11.3,4.1,22.5,8.3,33.9,12.1c12.5,4.1,25.5,7,37.7,12
		c18,7.3,27.3,21.6,28.7,40.9c1,13.3-1.6,26.3-3.7,39.3c-0.7,4.6-1.7,9.3-2.3,13.9c-0.2,1.2,0.4,2.8,1.2,3.6
		c2.4,2.3,3.2,4.9,3.3,8.2c0.2,9.5-2.1,18.5-5.4,27.3c-1.7,4.5-3.7,9-4.6,13.6c-2.3,11.7-7.7,22.1-12.7,32.7
		c-3.3,6.9-7.3,13.7-7.7,21.5c-0.5,10.2-1,20.6-0.1,30.7c0.7,7.1,6.2,11.6,13.2,13.4c7.9,2.1,16,3.8,23.9,5.9
		c18.5,4.8,36.2,11.6,52.8,21.1c1.7,1,3.3,2,4.9,3.1c1.1,0.7,2,1.6,3,2.4c-69.7,72.3-201.6,82.8-285.4,0.1c2.3-1.6,4.4-3.4,6.7-4.8
		c18.4-10.9,38.3-18.3,59.1-23.2c6.2-1.4,12.4-2.7,18.6-4.3c8.2-2.1,14.2-9.5,14.1-18c0-9.5,0.1-19.1-0.8-28.5
		c-0.5-4.9-2.9-9.7-4.9-14.3c-3.8-8.8-8.1-17.4-11.8-26.3c-1.6-3.8-2.2-8-3.4-11.9c-2.6-8.2-5.7-16.2-7.9-24.5
		c-1.4-5.1-1.5-10.6-2.1-15.9c-0.4-3.3,0.7-6.2,3.4-8.4c1.4-1.1,1.6-2.4,1.3-4.2c-2.2-14-4.7-28-6.2-42.2
		c-2.1-20.4,6.4-35.9,23.5-46.8c3-1.9,6.2-3.8,9.4-5.3c5.8-2.6,8.8-7.1,9.6-13.3C188.1,72.3,188.6,67.8,189.2,62.6z"/>
</g>
</svg>
