<?xml version="1.0" encoding="utf-8"?>
<!-- Generator: Adobe Illustrator 19.0.0, SVG Export Plug-In . SVG Version: 6.00 Build 0)  -->
<svg version="1.1" id="Layer_1" xmlns="http://www.w3.org/2000/svg" xmlns:xlink="http://www.w3.org/1999/xlink" x="0px" y="0px"
	 viewBox="0 0 512 477.1" style="enable-background:new 0 0 512 477.1;" xml:space="preserve">
<g>
	<path d="M0,438.5c1.3-10.5,2.3-21.1,4-31.6c4.5-26.5,13.2-51.3,30.8-72.1c13.8-16.4,30.9-27.3,52.4-31.5c27.6-5.4,51-18.1,67-42.2
		c0.3-0.4,0.6-0.8,0.8-1.2c8.1-12.8,7.7-12.4-1.7-24c-37.6-46.4-52.9-98.7-38.1-157.3C127,32.4,165.4,3,212.8,0.3
		c22.4-1.3,43.9,1.5,64,11.8c33.6,17.3,52.1,46,56.9,82.5c7.5,56.4-8.9,105.9-47.8,147.7c-2.4,2.6-1.9,4.5-0.7,7
		c12.5,26.9,34.2,42.7,61.9,51.1c4.3,1.3,8.7,2.2,13.2,3.3c1.7-7.3,3-14.4,5-21.2c16.4-58.1,54.7-94,111.9-111
		c3.8-1.1,7.7-2.1,11.6-3c12.7-2.9,17.6-0.6,23.1,11c0,2.3,0,4.7,0,7c-9.2,14.9-18.4,29.9-27.9,45.2c1.4,0.3,2.5,0.6,3.6,0.9
		c9,2.6,14,11.9,10.5,20.5c-10.5,25.7-25.2,48.8-45.6,67.9c-10.3,9.6-21.9,17.3-35,23.2c0.8,1.5,1.5,2.6,2.1,3.8
		c4.8,10,10.4,19.8,14.1,30.2c10.2,28.3,12.1,57.8,11.3,87.7c-0.3,9.5-2.1,11.3-11.6,11.3c-140.6,0-281.3,0-421.9,0.1
		c-5.1,0-9.1-1.2-11.7-5.6C0,460.5,0,449.5,0,438.5z M358.3,319.2c-0.9-0.2-2-0.6-3.1-0.8c-16.8-3.4-32.7-9.2-46.8-19.1
		c-3.4-2.4-5.5-2-8.6,0.2c-23,16.2-46.2,32.2-69.3,48.3c-7.4,5.1-8.4,5.1-15.5,0.1c-4.9-3.4-9.8-6.8-14.8-10.3
		c-19.6-13.6-39.1-27.1-58.7-40.7c-4.9,2.9-9.3,6.4-14.4,8.4c-11.4,4.6-22.8,9.8-34.7,12.2c-26,5.4-44,20.5-56.6,42.8
		C22,384.9,17.4,411.8,16,439.5c-0.4,7.2-0.1,14.5-0.1,21.7c138.2,0,275.8,0,413.9,0c0.3-18-0.8-35.6-4-52.9
		c-3.7-19.8-10-38.6-21.4-55.5c-1.7-2.6-3.3-3.2-6.5-2.6c-7.7,1.4-15.5,2.1-23.3,2.7c-3,0.2-4.9,1-6.4,3.6
		c-8,14.4-16.5,28.5-24.3,43c-5,9.4-8.9,19.3-13.5,28.9c-2,4.3-6,5.9-9.8,4.4c-4.1-1.6-5.9-5.7-4.5-10.3c0.2-0.8,0.6-1.5,0.9-2.3
		c10.9-25.5,23.5-50,38.6-73.2c1-1.5,2.4-3.2,2.4-4.8C358.4,334.7,358.3,327.1,358.3,319.2z M187.6,73.5c-0.6,1-1.1,2.1-1.9,2.9
		c-14.1,15.5-31.7,24.5-52.3,27.8c-7.9,1.3-8.1,1.3-8.2,9.3c-0.5,31.7,7.5,61.3,23.2,88.7c9.4,16.5,21.2,31.1,37.4,41.5
		c23.9,15.3,48.4,16.1,72.3,0.7c9.2-6,17.8-13.7,24.8-22.1c22.9-27.5,34.2-59.8,36.9-95.2c1-13.3,0.3-26.5-3.5-39.9
		C271.3,104.3,228.3,104.1,187.6,73.5z M129,89.1c14.7-1.8,27.5-6.9,38.2-16.4c4.8-4.3,9-9.3,13.3-14.2c4.4-4.9,8.5-5.3,13.2-0.9
		c1.7,1.6,3.3,3.3,5.1,4.7c23.5,18.8,50.3,24.3,79.4,19.4c11.2-1.9,22.1-5.5,33.2-8.4c-13.3-35.6-48.6-61.4-97.7-57.6
		C170.1,19.1,132.9,51.4,129,89.1z M495.5,183.7c-24.9,0.6-67.9,24.8-88.7,49.5c-18.8,22.4-35.2,66.5-32.1,86.8
		c3.4-4.2,6.6-8.1,9.9-12.1c13.8-16.3,28.8-31.5,46.2-44c5-3.6,9.5-3.2,12.3,0.9c2.7,3.8,1.6,8.2-3,11.6
		c-21.8,16.1-39.7,36-55.9,57.5c-0.5,0.7-0.7,1.6-1.1,2.5c44-2.3,82.6-43.2,99.9-88.5c-4.2,1-8,1.7-11.8,2.7
		c-4,1.1-7.6,1.4-10.4-2.2c-3-3.9-1.4-7.4,0.9-11c10.5-16.4,20.9-32.9,31.3-49.4C493.8,186.7,494.6,185.3,495.5,183.7z M154.6,286.7
		c-0.2-0.3,0,0.2,0.4,0.5c21.7,15.1,43.4,30.3,65.3,45.2c1.2,0.8,4.1,0.4,5.5-0.5c10-6.6,19.8-13.6,29.6-20.4
		c12.1-8.4,24.3-16.9,35.7-24.8c-7.2-10.4-14.3-20.6-21.3-30.8c-31.3,20.2-63,20.3-94,0.1C168.6,266.3,161.7,276.4,154.6,286.7z"/>
</g>
</svg>
