<?xml version="1.0" encoding="utf-8"?>
<!-- Generator: Adobe Illustrator 19.0.0, SVG Export Plug-In . SVG Version: 6.00 Build 0)  -->
<svg version="1.1" id="Layer_1" xmlns="http://www.w3.org/2000/svg" xmlns:xlink="http://www.w3.org/1999/xlink" x="0px" y="0px"
	 viewBox="0 0 170.9 207.1" style="enable-background:new 0 0 170.9 207.1;" xml:space="preserve">
<g id="book-placeholder-svg">
	<path id="book" d="M171.1,198c0,3.3,0,5.8,0,9c-1.8,0-3.6,0-5.4,0c-45.5,0-91-0.1-136.4,0.1c-15.4,0.1-29.5-10-29.3-29.2
		c0.6-49.8,0.2-99.6,0.2-149.4C0.2,11.8,11.8,0,28.3,0c46,0,92,0,137.9,0c1.5,0,2.9,0,4.7,0c0,55.5,0,110.5,0,166.3
		c-2,0-3.9,0-5.9,0c-44.6,0-89.3,0-133.9,0c-2.6,0-5.3,0.2-7.9,0.6c-9,1.6-14.4,8-14,16.1c0.5,7.7,7.8,14.5,16.2,15
		c1.5,0.1,3,0,4.5,0c45,0,90,0,134.9,0C166.8,198,168.7,198,171.1,198z M9.2,164.1c7.2-5.8,14.7-6.4,22.5-6.4
		c41.5,0.1,82.9,0.1,124.4,0.1c1.9,0,3.9,0,5.8,0c0-49.9,0-99.2,0-148.7c-1.9,0-3.6,0-5.2,0C114,9,71.4,9,28.8,9
		C16.5,9,9.2,16.3,9.2,28.5c0,43.3,0,86.6,0,129.9C9.2,159.9,9.2,161.4,9.2,164.1z"/>
	<path id="dot" d="M92.6,126.9h-6.3c-4.4,0-8,3.6-8,8v8.7c0,4.4,3.6,8,8,8h6.3c4.4,0,8-3.6,8-8V135
		C100.7,130.5,97.1,126.9,92.6,126.9z"/>
	<path id="question" d="M48.3,59.7l11.6,1.4c3.7,0.5,7.2-1.7,8.5-5.1c1.7-4.4,4-7.8,7-10.4c4.2-3.6,9.5-5.4,15.8-5.4
		c6.5,0,11.7,1.7,15.6,5.1c3.9,3.4,5.8,7.5,5.8,12.3c0,3.5-1.1,6.6-3.3,9.5c-1.4,1.8-5.7,5.7-12.9,11.5c-7.2,5.9-12,11.1-14.4,15.8
		c-2.5,4.8-3.3,10.1-3.5,15.4c-0.2,4.6,3.5,8.4,8,8.4h6.6c4.2,0,7.6-3.2,8-7.4c0.3-3,0.8-5.2,1.5-6.8c1.3-2.6,4.5-6.1,9.7-10.5
		c10.1-8.4,16.7-15,19.8-19.9c3.1-4.9,4.6-10,4.6-15.5c0-9.8-4.2-18.5-12.6-25.9c-8.4-7.4-19.7-11.1-33.9-11.1
		c-13.5,0-24.4,3.7-32.7,11C50.4,38.6,46.1,46,44.6,54.5C44.1,57,45.8,59.3,48.3,59.7z"/>
</g>
</svg>
