<?xml version="1.0" encoding="utf-8"?>
<!-- Generator: Adobe Illustrator 19.0.0, SVG Export Plug-In . SVG Version: 6.00 Build 0)  -->
<svg version="1.1" id="Layer_1" xmlns="http://www.w3.org/2000/svg" xmlns:xlink="http://www.w3.org/1999/xlink" x="0px" y="0px"
	 viewBox="0 0 800 600" style="enable-background:new 0 0 800 600;" xml:space="preserve">
<path id="XMLID_14_" d="M555,400v139.5c0,13.1-11.1,24.5-24.2,24.5H416v-40h69.4c13.1,0,23.6-10.7,23.6-23.9V400H555z"/>
<path id="XMLID_13_" d="M555,72.6V211h-46v-99.1c0-13.1-10.5-23.9-23.6-23.9H416V49h114.8C543.9,49,555,59.4,555,72.6z"/>
<polygon id="XMLID_5_" points="714.9,299.6 630,228.5 630,267 448,267 448,333 630,333 630,370.8 "/>
<path id="XMLID_7_" d="M363.2,0.2L96.6,47.6c-6.2,1.1-11.6,8.8-11.6,17v470.7c0,8.3,5.6,15.9,11.7,17l266.2,47.4
	c8.8,1.6,16.1-5.3,16.1-15.3v-569C379,5.5,372-1.3,363.2,0.2z M329.6,321.8c-12.5,0-22.7-10.2-22.7-22.7c0-12.5,10.2-22.7,22.7-22.7
	c12.5,0,22.7,10.2,22.7,22.7C352.3,311.6,342.1,321.8,329.6,321.8z"/>
</svg>
