<?xml version="1.0" encoding="utf-8"?>
<!-- Generator: Adobe Illustrator 19.0.0, SVG Export Plug-In . SVG Version: 6.00 Build 0)  -->
<svg version="1.1" id="Layer_1" xmlns="http://www.w3.org/2000/svg" xmlns:xlink="http://www.w3.org/1999/xlink" x="0px" y="0px"
	 viewBox="0 0 392.4 506.9" style="enable-background:new 0 0 392.4 506.9;" xml:space="preserve">
<g>
	<path d="M0,252.9c0-68,0-136.1,0-204.1c0-35.5,12.8-48.5,47.6-48.6C117.8,0.2,188,0.5,258.1,0c13.8-0.1,24.1,4,33.8,13.9
		c28.8,29.8,59,58.3,87.4,88.5c6.9,7.3,12.4,19.2,12.5,29c0.9,110.5,0.7,221.1,0.5,331.6c-0.1,29.8-14.2,43.6-44.4,43.6
		c-101,0.1-202,0.1-302.9,0c-30.9,0-44.7-13.9-44.8-45C-0.1,392.1,0,322.5,0,252.9z M263.1,32.2c-7.6,0-12.9,0-18.1,0
		c-64.3,0-128.6,0.6-192.9-0.4c-16.5-0.2-20.4,5-20.3,20.8c0.6,133.9,0.6,267.8,0,401.7c-0.1,15.5,3.3,21.1,20.1,21
		c96.2-0.8,192.3-0.8,288.5,0c16.4,0.1,20.5-4.9,20.4-20.7c-0.7-102-0.3-204-0.3-306.1c0-5.7,0-11.4,0-19.1c-20.7,0-39.6,0.1-58.6,0
		c-26.6-0.2-38.6-12.4-38.7-39.3C263,71.6,263.1,53.1,263.1,32.2z"/>
	<path d="M196.4,298.3c32.9,0,65.9,0.2,98.8-0.1c10-0.1,16,1.5,16,13.7c0,11.7-5.2,14.4-15.6,14.3c-66.4-0.2-132.8-0.3-199.2,0
		c-10.8,0-15.2-3.4-15.1-14.8c0.1-10.9,5-13.4,14.7-13.3C129.5,298.6,162.9,298.3,196.4,298.3z"/>
	<path d="M196.4,266.9c-33.4,0-66.8-0.2-100.2,0.1c-9.3,0.1-14.8-1.6-14.9-13c-0.2-11.8,5-14.2,15.4-14.1
		c66.3,0.3,132.6,0.3,198.8,0c10,0,15.8,1.6,15.8,13.8c0,12.6-6.7,13.4-16.2,13.3C262.1,266.8,229.2,266.9,196.4,266.9z"/>
	<path d="M175.5,384.4c-26.6,0-53.2-0.3-79.7,0.2c-9.9,0.2-14.5-2.6-14.5-13.4c0-10.2,3.5-14.3,13.9-14.3c53.7,0.2,107.4,0.3,161,0
		c10.5,0,13.6,4.4,13.7,14.4c0.1,11-4.9,13.4-14.6,13.3C228.7,384.1,202.1,384.4,175.5,384.4z"/>
	<path d="M132.2,186.1c-12.7,0-25.4-0.3-38.1,0.1c-9.8,0.3-12.8-4.3-12.8-13.5c-0.1-9.7,2.6-14.8,13.4-14.6
		c25.4,0.4,50.7,0.3,76.1,0c9.8-0.1,12.7,4.2,12.8,13.5c0.1,9.7-2.5,15-13.3,14.6C157.6,185.8,144.9,186.1,132.2,186.1z"/>
</g>
</svg>
